<svg width="685" height="321" viewBox="0 0 685 321" fill="none" xmlns="http://www.w3.org/2000/svg">
<path d="M8.20117 308.431C9.5625 308.431 10.2542 307.545 10.2764 305.774H14.6924C14.6702 307.733 14.0671 309.316 12.8828 310.522C11.6986 311.729 10.1712 312.332 8.30078 312.332C5.98763 312.332 4.22233 311.613 3.00488 310.174C1.78743 308.735 1.16764 306.616 1.14551 303.815V302.388C1.14551 299.565 1.74316 297.413 2.93848 295.93C4.14486 294.447 5.92122 293.705 8.26758 293.705C10.2487 293.705 11.8092 294.319 12.9492 295.548C14.0892 296.765 14.6702 298.497 14.6924 300.744H10.2764C10.2653 299.737 10.0993 298.962 9.77832 298.42C9.45736 297.878 8.92611 297.606 8.18457 297.606C7.36556 297.606 6.77897 297.9 6.4248 298.486C6.07064 299.062 5.88249 300.185 5.86035 301.856V303.683C5.86035 305.144 5.93229 306.167 6.07617 306.754C6.22005 307.329 6.45801 307.756 6.79004 308.032C7.12207 308.298 7.59245 308.431 8.20117 308.431ZM16.8008 302.438C16.8008 299.715 17.4427 297.579 18.7266 296.029C20.0104 294.48 21.7868 293.705 24.0557 293.705C26.3467 293.705 28.1341 294.48 29.418 296.029C30.7018 297.579 31.3438 299.726 31.3438 302.471V303.616C31.3438 306.35 30.7074 308.486 29.4346 310.024C28.1618 311.563 26.3799 312.332 24.0889 312.332C21.7868 312.332 19.9938 311.563 18.71 310.024C17.4372 308.475 16.8008 306.328 16.8008 303.583V302.438ZM21.5156 303.616C21.5156 306.826 22.3734 308.431 24.0889 308.431C25.6715 308.431 26.5238 307.091 26.6455 304.413L26.6621 302.438C26.6621 300.799 26.4352 299.588 25.9814 298.802C25.5277 298.005 24.8857 297.606 24.0557 297.606C23.2588 297.606 22.6335 298.005 22.1797 298.802C21.737 299.588 21.5156 300.799 21.5156 302.438V303.616ZM39.2129 312H34.498V286.5H39.2129V312ZM42.3008 302.438C42.3008 299.715 42.9427 297.579 44.2266 296.029C45.5104 294.48 47.2868 293.705 49.5557 293.705C51.8467 293.705 53.6341 294.48 54.918 296.029C56.2018 297.579 56.8438 299.726 56.8438 302.471V303.616C56.8438 306.35 56.2074 308.486 54.9346 310.024C53.6618 311.563 51.8799 312.332 49.5889 312.332C47.2868 312.332 45.4938 311.563 44.21 310.024C42.9372 308.475 42.3008 306.328 42.3008 303.583V302.438ZM47.0156 303.616C47.0156 306.826 47.8734 308.431 49.5889 308.431C51.1715 308.431 52.0238 307.091 52.1455 304.413L52.1621 302.438C52.1621 300.799 51.9352 299.588 51.4814 298.802C51.0277 298.005 50.3857 297.606 49.5557 297.606C48.7588 297.606 48.1335 298.005 47.6797 298.802C47.237 299.588 47.0156 300.799 47.0156 302.438V303.616ZM68.6475 298.569L67.0869 298.437C65.8031 298.437 64.9342 299.001 64.4805 300.13V312H59.7656V294.037H64.1982L64.3311 295.979C65.0726 294.463 66.0964 293.705 67.4023 293.705C67.9336 293.705 68.3652 293.777 68.6973 293.921L68.6475 298.569ZM79.5215 303.6H71.4033V299.682H79.5215V303.6ZM89.9141 308.431C91.2754 308.431 91.9671 307.545 91.9893 305.774H96.4053C96.3831 307.733 95.7799 309.316 94.5957 310.522C93.4115 311.729 91.8841 312.332 90.0137 312.332C87.7005 312.332 85.9352 311.613 84.7178 310.174C83.5003 308.735 82.8805 306.616 82.8584 303.815V302.388C82.8584 299.565 83.4561 297.413 84.6514 295.93C85.8577 294.447 87.6341 293.705 89.9805 293.705C91.9616 293.705 93.5221 294.319 94.6621 295.548C95.8021 296.765 96.3831 298.497 96.4053 300.744H91.9893C91.9782 299.737 91.8122 298.962 91.4912 298.42C91.1702 297.878 90.639 297.606 89.8975 297.606C89.0785 297.606 88.4919 297.9 88.1377 298.486C87.7835 299.062 87.5954 300.185 87.5732 301.856V303.683C87.5732 305.144 87.6452 306.167 87.7891 306.754C87.9329 307.329 88.1709 307.756 88.5029 308.032C88.835 308.298 89.3053 308.431 89.9141 308.431ZM98.5137 302.438C98.5137 299.715 99.1556 297.579 100.439 296.029C101.723 294.48 103.5 293.705 105.769 293.705C108.06 293.705 109.847 294.48 111.131 296.029C112.415 297.579 113.057 299.726 113.057 302.471V303.616C113.057 306.35 112.42 308.486 111.147 310.024C109.875 311.563 108.093 312.332 105.802 312.332C103.5 312.332 101.707 311.563 100.423 310.024C99.1501 308.475 98.5137 306.328 98.5137 303.583V302.438ZM103.229 303.616C103.229 306.826 104.086 308.431 105.802 308.431C107.384 308.431 108.237 307.091 108.358 304.413L108.375 302.438C108.375 300.799 108.148 299.588 107.694 298.802C107.241 298.005 106.599 297.606 105.769 297.606C104.972 297.606 104.346 298.005 103.893 298.802C103.45 299.588 103.229 300.799 103.229 302.438V303.616ZM120.295 294.037L120.428 295.813C121.49 294.408 122.879 293.705 124.595 293.705C127.683 293.705 129.271 295.869 129.359 300.196V312H124.645V300.545C124.645 299.527 124.49 298.791 124.18 298.337C123.881 297.872 123.35 297.64 122.586 297.64C121.734 297.64 121.07 298.077 120.594 298.951V312H115.879V294.037H120.295ZM138.191 289.621V294.037H140.599V297.573H138.191V306.488C138.191 307.197 138.285 307.684 138.474 307.949C138.673 308.215 139.049 308.348 139.603 308.348C140.056 308.348 140.427 308.309 140.715 308.231L140.682 311.884C139.885 312.183 139.021 312.332 138.092 312.332C135.059 312.332 133.526 310.594 133.493 307.119V297.573H131.418V294.037H133.493V289.621H138.191ZM152.054 298.569L150.493 298.437C149.209 298.437 148.34 299.001 147.887 300.13V312H143.172V294.037H147.604L147.737 295.979C148.479 294.463 149.503 293.705 150.809 293.705C151.34 293.705 151.771 293.777 152.104 293.921L152.054 298.569ZM162.513 312C162.38 311.723 162.247 311.258 162.114 310.605C161.273 311.757 160.133 312.332 158.694 312.332C157.189 312.332 155.938 311.834 154.942 310.838C153.957 309.842 153.465 308.552 153.465 306.97C153.465 305.088 154.062 303.633 155.258 302.604C156.464 301.574 158.196 301.049 160.454 301.026H161.882V299.582C161.882 298.774 161.743 298.204 161.467 297.872C161.19 297.54 160.786 297.374 160.255 297.374C159.082 297.374 158.495 298.06 158.495 299.433H153.797C153.797 297.772 154.417 296.406 155.656 295.332C156.907 294.247 158.484 293.705 160.388 293.705C162.358 293.705 163.88 294.22 164.953 295.249C166.038 296.267 166.58 297.728 166.58 299.632V308.082C166.602 309.632 166.824 310.843 167.244 311.718V312H162.513ZM159.74 308.646C160.26 308.646 160.703 308.541 161.068 308.331C161.434 308.121 161.705 307.872 161.882 307.584V303.849H160.753C159.956 303.849 159.325 304.103 158.86 304.612C158.407 305.121 158.18 305.802 158.18 306.654C158.18 307.982 158.7 308.646 159.74 308.646ZM177.936 307.186C177.936 306.787 177.742 306.422 177.354 306.09C176.978 305.747 176.132 305.287 174.814 304.712C172.878 303.926 171.544 303.113 170.813 302.271C170.094 301.43 169.734 300.384 169.734 299.134C169.734 297.562 170.299 296.267 171.428 295.249C172.568 294.22 174.073 293.705 175.943 293.705C177.913 293.705 179.491 294.214 180.675 295.232C181.859 296.251 182.451 297.618 182.451 299.333H177.753C177.753 297.872 177.144 297.142 175.927 297.142C175.429 297.142 175.019 297.297 174.698 297.606C174.377 297.916 174.217 298.348 174.217 298.901C174.217 299.3 174.394 299.654 174.748 299.964C175.102 300.263 175.938 300.694 177.255 301.259C179.17 301.967 180.52 302.758 181.306 303.633C182.103 304.496 182.501 305.619 182.501 307.003C182.501 308.608 181.898 309.897 180.691 310.871C179.485 311.845 177.902 312.332 175.943 312.332C174.626 312.332 173.464 312.077 172.457 311.568C171.45 311.048 170.659 310.329 170.083 309.41C169.519 308.492 169.236 307.501 169.236 306.438H173.702C173.724 307.257 173.912 307.872 174.267 308.281C174.632 308.691 175.224 308.896 176.043 308.896C177.305 308.896 177.936 308.326 177.936 307.186ZM190.885 289.621V294.037H193.292V297.573H190.885V306.488C190.885 307.197 190.979 307.684 191.167 307.949C191.366 308.215 191.743 308.348 192.296 308.348C192.75 308.348 193.12 308.309 193.408 308.231L193.375 311.884C192.578 312.183 191.715 312.332 190.785 312.332C187.753 312.332 186.22 310.594 186.187 307.119V297.573H184.111V294.037H186.187V289.621H190.885ZM196.164 302.172C196.164 299.693 196.452 297.313 197.027 295.033C197.614 292.753 198.483 290.717 199.634 288.924C200.796 287.12 202.035 285.875 203.353 285.188L204.232 287.778C202.982 288.951 201.991 290.756 201.261 293.19C200.53 295.614 200.148 298.42 200.115 301.607V302.604C200.115 305.924 200.475 308.846 201.194 311.369C201.925 313.882 202.938 315.757 204.232 316.997L203.353 319.554C202.047 318.868 200.818 317.645 199.667 315.885C198.527 314.125 197.664 312.122 197.077 309.875C196.491 307.628 196.186 305.287 196.164 302.853V302.172ZM293.914 305.359L296.188 294.037H301.086L296.155 312H291.673L286.726 294.037H291.64L293.914 305.359ZM311.246 307.186C311.246 306.787 311.052 306.422 310.665 306.09C310.289 305.747 309.442 305.287 308.125 304.712C306.188 303.926 304.854 303.113 304.124 302.271C303.405 301.43 303.045 300.384 303.045 299.134C303.045 297.562 303.609 296.267 304.738 295.249C305.878 294.22 307.383 293.705 309.254 293.705C311.224 293.705 312.801 294.214 313.985 295.232C315.17 296.251 315.762 297.618 315.762 299.333H311.063C311.063 297.872 310.455 297.142 309.237 297.142C308.739 297.142 308.33 297.297 308.009 297.606C307.688 297.916 307.527 298.348 307.527 298.901C307.527 299.3 307.704 299.654 308.059 299.964C308.413 300.263 309.248 300.694 310.565 301.259C312.48 301.967 313.83 302.758 314.616 303.633C315.413 304.496 315.812 305.619 315.812 307.003C315.812 308.608 315.208 309.897 314.002 310.871C312.796 311.845 311.213 312.332 309.254 312.332C307.937 312.332 306.775 312.077 305.768 311.568C304.76 311.048 303.969 310.329 303.394 309.41C302.829 308.492 302.547 307.501 302.547 306.438H307.013C307.035 307.257 307.223 307.872 307.577 308.281C307.942 308.691 308.535 308.896 309.354 308.896C310.615 308.896 311.246 308.326 311.246 307.186Z" fill="black"/>
<path d="M220.884 303.6C220.884 306.51 220.419 308.696 219.489 310.157C218.56 311.607 217.099 312.332 215.106 312.332C213.546 312.332 212.295 311.629 211.354 310.224L211.205 312H206.872V286.5H211.57V295.498C212.456 294.303 213.623 293.705 215.073 293.705C217.065 293.705 218.526 294.43 219.456 295.88C220.386 297.319 220.862 299.433 220.884 302.222V303.6ZM216.186 302.421C216.186 300.528 216.003 299.261 215.638 298.619C215.272 297.966 214.636 297.64 213.729 297.64C212.743 297.64 212.024 298.088 211.57 298.984V307.169C211.991 308.01 212.721 308.431 213.762 308.431C214.658 308.431 215.278 308.137 215.621 307.551C215.975 306.964 216.163 305.824 216.186 304.131V302.421ZM228.637 312H223.922V286.5H228.637V312ZM240.806 312C240.673 311.723 240.54 311.258 240.407 310.605C239.566 311.757 238.426 312.332 236.987 312.332C235.482 312.332 234.231 311.834 233.235 310.838C232.25 309.842 231.758 308.552 231.758 306.97C231.758 305.088 232.355 303.633 233.551 302.604C234.757 301.574 236.489 301.049 238.747 301.026H240.175V299.582C240.175 298.774 240.036 298.204 239.76 297.872C239.483 297.54 239.079 297.374 238.548 297.374C237.375 297.374 236.788 298.06 236.788 299.433H232.09C232.09 297.772 232.71 296.406 233.949 295.332C235.2 294.247 236.777 293.705 238.681 293.705C240.651 293.705 242.173 294.22 243.246 295.249C244.331 296.267 244.873 297.728 244.873 299.632V308.082C244.895 309.632 245.117 310.843 245.537 311.718V312H240.806ZM238.033 308.646C238.553 308.646 238.996 308.541 239.361 308.331C239.727 308.121 239.998 307.872 240.175 307.584V303.849H239.046C238.249 303.849 237.618 304.103 237.153 304.612C236.7 305.121 236.473 305.802 236.473 306.654C236.473 307.982 236.993 308.646 238.033 308.646ZM254.768 308.431C256.129 308.431 256.821 307.545 256.843 305.774H261.259C261.237 307.733 260.633 309.316 259.449 310.522C258.265 311.729 256.738 312.332 254.867 312.332C252.554 312.332 250.789 311.613 249.571 310.174C248.354 308.735 247.734 306.616 247.712 303.815V302.388C247.712 299.565 248.31 297.413 249.505 295.93C250.711 294.447 252.488 293.705 254.834 293.705C256.815 293.705 258.376 294.319 259.516 295.548C260.656 296.765 261.237 298.497 261.259 300.744H256.843C256.832 299.737 256.666 298.962 256.345 298.42C256.024 297.878 255.493 297.606 254.751 297.606C253.932 297.606 253.345 297.9 252.991 298.486C252.637 299.062 252.449 300.185 252.427 301.856V303.683C252.427 305.144 252.499 306.167 252.643 306.754C252.786 307.329 253.024 307.756 253.356 308.032C253.688 308.298 254.159 308.431 254.768 308.431ZM269.875 305.077L268.613 306.488V312H263.915V286.5H268.613V300.279L269.194 299.416L272.448 294.037H278.043L272.83 301.441L278.541 312H273.162L269.875 305.077Z" fill="#357CAF"/>
<path d="M335.435 298.569L333.874 298.437C332.59 298.437 331.721 299.001 331.268 300.13V312H326.553V294.037H330.985L331.118 295.979C331.86 294.463 332.883 293.705 334.189 293.705C334.721 293.705 335.152 293.777 335.484 293.921L335.435 298.569ZM337.294 302.471C337.294 299.527 337.825 297.33 338.888 295.88C339.95 294.43 341.439 293.705 343.354 293.705C344.98 293.705 346.237 294.347 347.122 295.631L347.305 294.037H351.538V312C351.538 314.291 350.896 316.04 349.612 317.246C348.328 318.464 346.486 319.072 344.084 319.072C343.099 319.072 342.064 318.873 340.979 318.475C339.895 318.087 339.087 317.589 338.556 316.98L340.133 313.727C340.576 314.191 341.151 314.568 341.859 314.855C342.568 315.154 343.237 315.304 343.868 315.304C344.92 315.304 345.672 315.049 346.126 314.54C346.591 314.042 346.829 313.234 346.84 312.116V310.572C345.943 311.745 344.776 312.332 343.337 312.332C341.422 312.332 339.939 311.59 338.888 310.107C337.847 308.613 337.316 306.51 337.294 303.799V302.471ZM341.992 303.649C341.992 305.31 342.208 306.521 342.64 307.285C343.071 308.038 343.757 308.414 344.698 308.414C345.661 308.414 346.375 308.065 346.84 307.368V298.785C346.353 298.021 345.65 297.64 344.731 297.64C343.802 297.64 343.11 298.021 342.656 298.785C342.214 299.549 341.992 300.777 341.992 302.471V303.649ZM368.97 303.6C368.97 306.51 368.505 308.696 367.575 310.157C366.646 311.607 365.185 312.332 363.192 312.332C361.632 312.332 360.381 311.629 359.44 310.224L359.291 312H354.958V286.5H359.656V295.498C360.542 294.303 361.709 293.705 363.159 293.705C365.151 293.705 366.612 294.43 367.542 295.88C368.472 297.319 368.948 299.433 368.97 302.222V303.6ZM364.271 302.421C364.271 300.528 364.089 299.261 363.724 298.619C363.358 297.966 362.722 297.64 361.814 297.64C360.829 297.64 360.11 298.088 359.656 298.984V307.169C360.077 308.01 360.807 308.431 361.848 308.431C362.744 308.431 363.364 308.137 363.707 307.551C364.061 306.964 364.249 305.824 364.271 304.131V302.421ZM372.074 302.172C372.074 299.693 372.362 297.313 372.938 295.033C373.524 292.753 374.393 290.717 375.544 288.924C376.706 287.12 377.946 285.875 379.263 285.188L380.143 287.778C378.892 288.951 377.901 290.756 377.171 293.19C376.44 295.614 376.059 298.42 376.025 301.607V302.604C376.025 305.924 376.385 308.846 377.104 311.369C377.835 313.882 378.848 315.757 380.143 316.997L379.263 319.554C377.957 318.868 376.728 317.645 375.577 315.885C374.437 314.125 373.574 312.122 372.987 309.875C372.401 307.628 372.096 305.287 372.074 302.853V302.172ZM396.694 302.006C396.694 305.348 396.086 307.905 394.868 309.676C393.662 311.447 391.935 312.332 389.688 312.332C387.464 312.332 385.743 311.474 384.525 309.759C383.319 308.032 382.694 305.564 382.649 302.354V297.789C382.649 294.458 383.253 291.912 384.459 290.152C385.665 288.382 387.397 287.496 389.655 287.496C391.913 287.496 393.645 288.37 394.852 290.119C396.058 291.868 396.672 294.364 396.694 297.606V302.006ZM391.979 297.108C391.979 295.205 391.791 293.777 391.415 292.825C391.039 291.873 390.452 291.397 389.655 291.397C388.161 291.397 387.386 293.141 387.331 296.627V302.653C387.331 304.601 387.519 306.051 387.896 307.003C388.283 307.955 388.881 308.431 389.688 308.431C390.452 308.431 391.017 307.988 391.382 307.103C391.758 306.206 391.957 304.839 391.979 303.002V297.108ZM421.929 312H407.685V308.68L414.226 300.362C415.056 299.211 415.664 298.204 416.052 297.341C416.45 296.466 416.649 295.631 416.649 294.834C416.649 293.76 416.461 292.919 416.085 292.311C415.72 291.702 415.188 291.397 414.491 291.397C413.728 291.397 413.119 291.752 412.665 292.46C412.222 293.168 412.001 294.164 412.001 295.448H407.286C407.286 293.965 407.59 292.609 408.199 291.381C408.819 290.152 409.682 289.201 410.789 288.525C411.907 287.839 413.169 287.496 414.574 287.496C416.732 287.496 418.404 288.094 419.588 289.289C420.783 290.473 421.381 292.161 421.381 294.353C421.381 295.714 421.049 297.097 420.385 298.503C419.732 299.897 418.542 301.618 416.815 303.666L413.711 308.099H421.929V312ZM438.929 302.006C438.929 305.348 438.32 307.905 437.103 309.676C435.896 311.447 434.17 312.332 431.923 312.332C429.698 312.332 427.977 311.474 426.76 309.759C425.553 308.032 424.928 305.564 424.884 302.354V297.789C424.884 294.458 425.487 291.912 426.693 290.152C427.9 288.382 429.632 287.496 431.89 287.496C434.147 287.496 435.88 288.37 437.086 290.119C438.292 291.868 438.907 294.364 438.929 297.606V302.006ZM434.214 297.108C434.214 295.205 434.026 293.777 433.649 292.825C433.273 291.873 432.687 291.397 431.89 291.397C430.396 291.397 429.621 293.141 429.565 296.627V302.653C429.565 304.601 429.754 306.051 430.13 307.003C430.517 307.955 431.115 308.431 431.923 308.431C432.687 308.431 433.251 307.988 433.616 307.103C433.993 306.206 434.192 304.839 434.214 303.002V297.108ZM456.128 302.006C456.128 305.348 455.519 307.905 454.302 309.676C453.095 311.447 451.369 312.332 449.122 312.332C446.897 312.332 445.176 311.474 443.959 309.759C442.753 308.032 442.127 305.564 442.083 302.354V297.789C442.083 294.458 442.686 291.912 443.893 290.152C445.099 288.382 446.831 287.496 449.089 287.496C451.347 287.496 453.079 288.37 454.285 290.119C455.492 291.868 456.106 294.364 456.128 297.606V302.006ZM451.413 297.108C451.413 295.205 451.225 293.777 450.849 292.825C450.472 291.873 449.886 291.397 449.089 291.397C447.595 291.397 446.82 293.141 446.765 296.627V302.653C446.765 304.601 446.953 306.051 447.329 307.003C447.716 307.955 448.314 308.431 449.122 308.431C449.886 308.431 450.45 307.988 450.815 307.103C451.192 306.206 451.391 304.839 451.413 303.002V297.108ZM481.163 302.006C481.163 305.348 480.554 307.905 479.337 309.676C478.131 311.447 476.404 312.332 474.157 312.332C471.933 312.332 470.212 311.474 468.994 309.759C467.788 308.032 467.162 305.564 467.118 302.354V297.789C467.118 294.458 467.721 291.912 468.928 290.152C470.134 288.382 471.866 287.496 474.124 287.496C476.382 287.496 478.114 288.37 479.32 290.119C480.527 291.868 481.141 294.364 481.163 297.606V302.006ZM476.448 297.108C476.448 295.205 476.26 293.777 475.884 292.825C475.507 291.873 474.921 291.397 474.124 291.397C472.63 291.397 471.855 293.141 471.8 296.627V302.653C471.8 304.601 471.988 306.051 472.364 307.003C472.752 307.955 473.349 308.431 474.157 308.431C474.921 308.431 475.485 307.988 475.851 307.103C476.227 306.206 476.426 304.839 476.448 303.002V297.108ZM491.971 302.57C491.971 305.149 491.639 307.59 490.975 309.892C490.322 312.194 489.409 314.214 488.235 315.951C487.073 317.689 485.839 318.89 484.533 319.554L483.67 316.997C484.932 315.791 485.928 313.948 486.658 311.469C487.389 308.979 487.765 306.162 487.787 303.019V302.139C487.787 298.918 487.422 296.04 486.691 293.506C485.972 290.96 484.965 289.04 483.67 287.745L484.533 285.188C485.385 285.62 486.254 286.34 487.14 287.347C488.036 288.354 488.844 289.599 489.563 291.082C490.283 292.565 490.864 294.236 491.307 296.096C491.749 297.944 491.971 300.102 491.971 302.57ZM496.835 318.093L494.328 316.781L494.959 315.603C495.667 314.297 496.033 312.979 496.055 311.651V307.916H500.139L500.122 311.253C500.111 312.426 499.812 313.644 499.226 314.905C498.639 316.167 497.842 317.229 496.835 318.093ZM520.509 298.569L518.948 298.437C517.664 298.437 516.796 299.001 516.342 300.13V312H511.627V294.037H516.06L516.192 295.979C516.934 294.463 517.958 293.705 519.264 293.705C519.795 293.705 520.227 293.777 520.559 293.921L520.509 298.569ZM530.188 312.332C527.775 312.332 525.893 311.613 524.543 310.174C523.193 308.735 522.518 306.676 522.518 303.998V302.57C522.518 299.737 523.137 297.551 524.377 296.013C525.617 294.474 527.393 293.705 529.706 293.705C531.964 293.705 533.663 294.43 534.803 295.88C535.943 297.319 536.524 299.455 536.546 302.288V304.596H527.199C527.266 305.924 527.559 306.898 528.079 307.518C528.599 308.126 529.402 308.431 530.486 308.431C532.058 308.431 533.369 307.894 534.421 306.82L536.264 309.659C535.688 310.456 534.853 311.104 533.757 311.602C532.661 312.089 531.471 312.332 530.188 312.332ZM527.232 301.309H531.931V300.877C531.909 299.803 531.731 298.99 531.399 298.437C531.067 297.883 530.492 297.606 529.673 297.606C528.854 297.606 528.256 297.9 527.88 298.486C527.515 299.073 527.299 300.014 527.232 301.309ZM538.571 302.471C538.571 299.527 539.069 297.33 540.065 295.88C541.062 294.43 542.511 293.705 544.415 293.705C545.799 293.705 546.95 294.303 547.868 295.498V286.5H552.6V312H548.333L548.117 310.174C547.154 311.613 545.915 312.332 544.398 312.332C542.517 312.332 541.078 311.613 540.082 310.174C539.097 308.735 538.593 306.621 538.571 303.832V302.471ZM543.286 303.649C543.286 305.42 543.474 306.66 543.851 307.368C544.227 308.065 544.863 308.414 545.76 308.414C546.689 308.414 547.392 307.999 547.868 307.169V298.968C547.403 298.082 546.706 297.64 545.776 297.64C544.913 297.64 544.282 297.988 543.884 298.686C543.485 299.383 543.286 300.622 543.286 302.404V303.649ZM557.464 318.093L554.957 316.781L555.588 315.603C556.296 314.297 556.661 312.979 556.684 311.651V307.916H560.768L560.751 311.253C560.74 312.426 560.441 313.644 559.854 314.905C559.268 316.167 558.471 317.229 557.464 318.093ZM585.354 304.114L586.965 294.037H591.464L587.745 312H583.844L581.304 301.607L578.764 312H574.846L571.127 294.037H575.643L577.236 304.131L579.627 294.037H582.964L585.354 304.114ZM598.37 295.614C599.388 294.341 600.639 293.705 602.122 293.705C603.76 293.705 605.005 294.281 605.857 295.432C606.71 296.583 607.141 298.298 607.152 300.578V312H602.438V300.628C602.438 299.576 602.271 298.818 601.939 298.354C601.618 297.878 601.093 297.64 600.362 297.64C599.51 297.64 598.846 298.033 598.37 298.818V312H593.672V286.5H598.37V295.614ZM615.453 312H610.738V294.037H615.453V312ZM610.522 289.389C610.522 288.658 610.755 288.061 611.22 287.596C611.685 287.131 612.304 286.898 613.079 286.898C613.854 286.898 614.474 287.131 614.938 287.596C615.403 288.061 615.636 288.658 615.636 289.389C615.636 290.108 615.403 290.706 614.938 291.182C614.485 291.658 613.865 291.896 613.079 291.896C612.293 291.896 611.668 291.658 611.203 291.182C610.749 290.706 610.522 290.108 610.522 289.389ZM624.551 289.621V294.037H626.958V297.573H624.551V306.488C624.551 307.197 624.645 307.684 624.833 307.949C625.032 308.215 625.409 308.348 625.962 308.348C626.416 308.348 626.786 308.309 627.074 308.231L627.041 311.884C626.244 312.183 625.381 312.332 624.451 312.332C621.419 312.332 619.886 310.594 619.853 307.119V297.573H617.777V294.037H619.853V289.621H624.551ZM636.803 312.332C634.39 312.332 632.508 311.613 631.158 310.174C629.808 308.735 629.133 306.676 629.133 303.998V302.57C629.133 299.737 629.753 297.551 630.992 296.013C632.232 294.474 634.008 293.705 636.321 293.705C638.579 293.705 640.278 294.43 641.418 295.88C642.558 297.319 643.139 299.455 643.161 302.288V304.596H633.814C633.881 305.924 634.174 306.898 634.694 307.518C635.215 308.126 636.017 308.431 637.102 308.431C638.673 308.431 639.985 307.894 641.036 306.82L642.879 309.659C642.303 310.456 641.468 311.104 640.372 311.602C639.276 312.089 638.087 312.332 636.803 312.332ZM633.848 301.309H638.546V300.877C638.524 299.803 638.347 298.99 638.015 298.437C637.683 297.883 637.107 297.606 636.288 297.606C635.469 297.606 634.871 297.9 634.495 298.486C634.13 299.073 633.914 300.014 633.848 301.309ZM653.338 302.57C653.338 305.149 653.006 307.59 652.342 309.892C651.689 312.194 650.776 314.214 649.603 315.951C648.44 317.689 647.206 318.89 645.9 319.554L645.037 316.997C646.299 315.791 647.295 313.948 648.025 311.469C648.756 308.979 649.132 306.162 649.154 303.019V302.139C649.154 298.918 648.789 296.04 648.059 293.506C647.339 290.96 646.332 289.04 645.037 287.745L645.9 285.188C646.753 285.62 647.621 286.34 648.507 287.347C649.403 288.354 650.211 289.599 650.931 291.082C651.65 292.565 652.231 294.236 652.674 296.096C653.117 297.944 653.338 300.102 653.338 302.57Z" fill="#980000"/>
<rect x="351" width="334" height="88" rx="10" fill="#980000"/>
<rect y="121" width="499" height="88" rx="10" fill="#357CAF"/>
<path d="M379.75 53H388.15V51.35H385.1V46.25H387.175C392.4 46.25 393.875 43.55 393.875 41.275C393.875 38.825 392.075 36.55 386.95 36.55H379.75V38.2H382.525V51.35H379.75V53ZM385.1 44.75V38.2H386.975C390.1 38.2 390.925 39.7 390.925 41.325C390.925 43.275 390.275 44.75 387 44.75H385.1ZM398.627 39.15C399.602 39.15 400.252 38.475 400.252 37.475C400.252 36.475 399.602 35.825 398.627 35.825C397.652 35.825 397.002 36.525 397.002 37.525C397.002 38.525 397.652 39.15 398.627 39.15ZM395.527 53H402.027V51.35H399.952V41.55H395.527V43.2H397.602V51.35H395.527V53ZM408.862 53.225C411.388 53.225 413.213 51.775 413.813 49.2H412.613C412.038 50.825 410.888 51.65 409.488 51.65C407.163 51.65 405.938 50 405.938 47.15C405.938 44.175 407.413 42.575 409.163 42.575C410.363 42.575 411.113 43.025 411.463 43.575C411.038 43.75 410.488 44.4 410.488 45.075C410.488 45.9 411.038 46.6 412.038 46.6C413.088 46.6 413.663 45.75 413.663 44.575C413.663 43.075 411.763 41.35 409.263 41.35C405.888 41.35 403.338 43.9 403.338 47.45C403.338 50.75 405.363 53.225 408.862 53.225ZM425.374 43.2H427.099V41.55H421.499V43.2H423.374L419.224 47.525V35.825H415.049V37.625H416.874V51.35H415.049V53H420.649V51.35H419.224V49.225L420.849 47.6L423.649 51.35H422.224V53H427.649V51.35H426.299L422.349 46.225L425.374 43.2ZM439.889 41.225C436.414 41.225 433.289 44.5 433.289 48.4C433.289 51.225 435.164 53.25 438.039 53.25C441.514 53.25 444.639 49.95 444.639 46.05C444.639 43.225 442.764 41.225 439.889 41.225ZM441.664 44.875C441.664 47.3 440.339 51.85 438.014 51.85C436.939 51.85 436.264 51.175 436.264 49.575C436.264 47.15 437.589 42.6 439.914 42.6C440.989 42.6 441.664 43.275 441.664 44.875ZM456.733 50.675C456.733 49.15 458.583 45.95 458.583 43.825C458.583 42.325 457.708 41.225 456.308 41.225C454.533 41.225 452.683 42.9 451.033 46.425L450.858 46.35C451.233 45.2 451.383 44.3 451.383 43.575C451.383 42.025 450.658 41.25 449.483 41.25C447.833 41.25 446.608 42.675 445.558 45.2L446.758 45.7C447.533 44.025 448.083 43.075 448.658 43.075C449.158 43.075 449.208 43.475 448.883 44.75L446.683 53H449.633C451.658 45.625 453.833 43.375 455.008 43.375C455.433 43.375 455.683 43.6 455.683 44.2C455.683 45.9 454.008 48.425 454.008 50.925C454.008 52.375 454.883 53.25 456.233 53.25C457.608 53.25 459.008 52.15 460.008 49.225L458.808 48.825C458.183 50.425 457.683 51.225 457.158 51.225C456.883 51.225 456.733 51.05 456.733 50.675ZM471.599 43.825C471.599 42.3 470.399 41.225 468.249 41.225C464.324 41.225 460.999 44.85 460.999 48.7C460.999 51.45 462.799 53.25 465.374 53.25C468.024 53.25 469.574 51.875 470.849 50.05L469.799 49.3C468.749 50.775 467.524 51.6 466.299 51.6C465.049 51.6 463.974 50.95 463.974 48.875C463.974 48.7 463.974 48.5 463.999 48.3C469.249 48 471.599 46.075 471.599 43.825ZM467.824 42.6C468.574 42.6 468.974 43.15 468.974 43.85C468.974 45.4 467.699 46.75 464.224 47.125C464.749 44.975 466.074 42.6 467.824 42.6ZM483.281 53.225C486.681 53.225 488.981 50.725 488.981 47.225C488.981 43.75 486.806 41.35 483.281 41.35C479.856 41.35 477.556 43.85 477.556 47.325C477.556 50.825 479.706 53.225 483.281 53.225ZM483.381 51.875C481.381 51.875 480.156 50.425 480.156 47.275C480.156 44.125 481.181 42.7 483.156 42.7C485.156 42.7 486.381 44.125 486.381 47.275C486.381 50.425 485.331 51.875 483.381 51.875ZM490.714 53H497.489V51.35H494.889V43.2H498.189V41.675H494.889V41.025C494.889 37.775 495.764 36.9 497.039 36.9C497.464 36.9 497.714 36.975 497.914 37.1C497.789 37.35 497.714 37.725 497.714 37.925C497.714 38.975 498.339 39.475 499.239 39.475C500.039 39.475 500.614 38.725 500.614 37.925C500.614 36.675 499.439 35.675 497.389 35.675C495.089 35.675 492.539 37.2 492.539 41.15V41.675H490.289V43.2H492.539V51.35H490.714V53ZM505.399 38.825V41.675H503.149V43.2H505.399V50.175C505.399 52.05 506.424 53.225 508.424 53.225C510.024 53.225 511.349 52.325 511.999 50.125L510.874 49.65C510.374 50.975 509.824 51.625 509.124 51.625C508.074 51.625 507.749 51.075 507.749 49.95V43.2H511.499V41.675H507.749V38.575L505.399 38.825ZM512.632 53H518.482V51.35H516.807V47C516.807 44.7 518.382 43.325 519.782 43.325C520.357 43.325 520.807 43.5 521.132 43.825C521.557 44.25 521.757 44.975 521.757 45.825V51.35H520.082V53H525.932V51.35H524.107V44.975C524.107 42.725 522.882 41.4 521.057 41.4C519.407 41.4 518.107 42.25 516.807 44.4V35.825H512.632V37.625H514.457V51.35H512.632V53ZM537.714 47.425C537.789 44.4 536.264 41.35 532.839 41.35C529.589 41.35 527.214 43.975 527.214 47.4C527.214 50.7 529.189 53.225 532.689 53.225C535.214 53.225 537.014 51.975 537.664 49.525H536.464C535.764 51.05 534.714 51.65 533.314 51.65C531.114 51.65 529.889 50.25 529.814 47.425H537.714ZM532.664 42.675C534.414 42.675 535.139 44.125 535.314 46.25H529.839C530.039 43.675 531.089 42.675 532.664 42.675ZM539.695 53.225H541.145L541.42 51.725C542.145 52.625 543.32 53.225 544.745 53.225C547.32 53.225 548.845 51.35 548.845 49.625C548.845 47.675 547.595 46.825 544.945 46.1C542.895 45.55 542.02 45.025 542.02 44.025C542.02 43.075 542.92 42.575 543.795 42.575C545.345 42.575 546.07 43.6 546.845 45.275H548.345V41.35H546.87L546.62 42.675C546.07 41.8 545.02 41.35 543.845 41.35C541.495 41.35 539.895 42.9 539.895 44.75C539.895 46.575 541.02 47.525 543.77 48.3C546.02 48.925 546.795 49.4 546.795 50.4C546.795 51.325 546.22 52 544.87 52C543.27 52 541.845 50.725 541.22 48.9H539.695V53.225ZM561.03 47.425C561.105 44.4 559.58 41.35 556.155 41.35C552.905 41.35 550.53 43.975 550.53 47.4C550.53 50.7 552.505 53.225 556.005 53.225C558.53 53.225 560.33 51.975 560.98 49.525H559.78C559.08 51.05 558.03 51.65 556.63 51.65C554.43 51.65 553.205 50.25 553.13 47.425H561.03ZM555.98 42.675C557.73 42.675 558.455 44.125 558.63 46.25H553.155C553.355 43.675 554.405 42.675 555.98 42.675ZM572.901 53.225C575.426 53.225 577.251 51.775 577.851 49.2H576.651C576.076 50.825 574.926 51.65 573.526 51.65C571.201 51.65 569.976 50 569.976 47.15C569.976 44.175 571.451 42.575 573.201 42.575C574.401 42.575 575.151 43.025 575.501 43.575C575.076 43.75 574.526 44.4 574.526 45.075C574.526 45.9 575.076 46.6 576.076 46.6C577.126 46.6 577.701 45.75 577.701 44.575C577.701 43.075 575.801 41.35 573.301 41.35C569.926 41.35 567.376 43.9 567.376 47.45C567.376 50.75 569.401 53.225 572.901 53.225ZM585.137 53.225C588.537 53.225 590.837 50.725 590.837 47.225C590.837 43.75 588.662 41.35 585.137 41.35C581.712 41.35 579.412 43.85 579.412 47.325C579.412 50.825 581.562 53.225 585.137 53.225ZM585.237 51.875C583.237 51.875 582.012 50.425 582.012 47.275C582.012 44.125 583.037 42.7 585.012 42.7C587.012 42.7 588.237 44.125 588.237 47.275C588.237 50.425 587.187 51.875 585.237 51.875ZM592.219 53H598.719V51.35H596.644V35.825H592.219V37.625H594.294V51.35H592.219V53ZM605.815 53.225C609.215 53.225 611.515 50.725 611.515 47.225C611.515 43.75 609.34 41.35 605.815 41.35C602.39 41.35 600.09 43.85 600.09 47.325C600.09 50.825 602.24 53.225 605.815 53.225ZM605.915 51.875C603.915 51.875 602.69 50.425 602.69 47.275C602.69 44.125 603.715 42.7 605.69 42.7C607.69 42.7 608.915 44.125 608.915 47.275C608.915 50.425 607.865 51.875 605.915 51.875ZM613.298 53H619.648V51.35H617.473V45.8C617.873 44.3 618.648 43.025 619.773 43.075C619.748 43.225 619.723 43.375 619.723 43.5C619.723 44.45 620.423 44.975 621.298 44.975C622.148 44.975 622.798 44.225 622.798 43.35C622.798 42.275 622.073 41.4 620.798 41.4C619.498 41.4 617.998 42.275 617.423 44.2V41.55H613.298V43.2H615.123V51.35H613.298V53ZM623.973 53.225H625.423L625.698 51.725C626.423 52.625 627.598 53.225 629.023 53.225C631.598 53.225 633.123 51.35 633.123 49.625C633.123 47.675 631.873 46.825 629.223 46.1C627.173 45.55 626.298 45.025 626.298 44.025C626.298 43.075 627.198 42.575 628.073 42.575C629.623 42.575 630.348 43.6 631.123 45.275H632.623V41.35H631.148L630.898 42.675C630.348 41.8 629.298 41.35 628.123 41.35C625.773 41.35 624.173 42.9 624.173 44.75C624.173 46.575 625.298 47.525 628.048 48.3C630.298 48.925 631.073 49.4 631.073 50.4C631.073 51.325 630.498 52 629.148 52C627.548 52 626.123 50.725 625.498 48.9H623.973V53.225ZM636.319 53.4C637.219 53.4 637.944 52.675 637.944 51.8C637.944 50.925 637.219 50.2 636.319 50.2C635.394 50.2 634.669 50.925 634.669 51.8C634.669 52.675 635.394 53.4 636.319 53.4ZM642.105 53.4C643.005 53.4 643.73 52.675 643.73 51.8C643.73 50.925 643.005 50.2 642.105 50.2C641.18 50.2 640.455 50.925 640.455 51.8C640.455 52.675 641.18 53.4 642.105 53.4ZM647.891 53.4C648.791 53.4 649.516 52.675 649.516 51.8C649.516 50.925 648.791 50.2 647.891 50.2C646.966 50.2 646.241 50.925 646.241 51.8C646.241 52.675 646.966 53.4 647.891 53.4ZM653.677 53.4C654.577 53.4 655.302 52.675 655.302 51.8C655.302 50.925 654.577 50.2 653.677 50.2C652.752 50.2 652.027 50.925 652.027 51.8C652.027 52.675 652.752 53.4 653.677 53.4Z" fill="white"/>
<path d="M38.9 172.4C39.8 172.4 40.525 171.675 40.525 170.8C40.525 169.925 39.8 169.2 38.9 169.2C37.975 169.2 37.25 169.925 37.25 170.8C37.25 171.675 37.975 172.4 38.9 172.4ZM44.6861 172.4C45.5861 172.4 46.3111 171.675 46.3111 170.8C46.3111 169.925 45.5861 169.2 44.6861 169.2C43.7611 169.2 43.0361 169.925 43.0361 170.8C43.0361 171.675 43.7611 172.4 44.6861 172.4ZM50.4723 172.4C51.3723 172.4 52.0973 171.675 52.0973 170.8C52.0973 169.925 51.3723 169.2 50.4723 169.2C49.5473 169.2 48.8223 169.925 48.8223 170.8C48.8223 171.675 49.5473 172.4 50.4723 172.4ZM60.3482 157.825V160.675H58.0982V162.2H60.3482V169.175C60.3482 171.05 61.3732 172.225 63.3732 172.225C64.9732 172.225 66.2982 171.325 66.9482 169.125L65.8232 168.65C65.3232 169.975 64.7732 170.625 64.0732 170.625C63.0232 170.625 62.6982 170.075 62.6982 168.95V162.2H66.4482V160.675H62.6982V157.575L60.3482 157.825ZM67.5809 172H73.4309V170.35H71.7559V166C71.7559 163.7 73.3309 162.325 74.7309 162.325C75.3059 162.325 75.7559 162.5 76.0809 162.825C76.5059 163.25 76.7059 163.975 76.7059 164.825V170.35H75.0309V172H80.8809V170.35H79.0559V163.975C79.0559 161.725 77.8309 160.4 76.0059 160.4C74.3559 160.4 73.0559 161.25 71.7559 163.4V154.825H67.5809V156.625H69.4059V170.35H67.5809V172ZM85.6887 172.125C87.1637 172.125 88.7387 171.3 89.3637 170.075H89.4887C89.4887 171.475 90.4887 172.075 91.5387 172.075C92.6637 172.075 93.5137 171.5 94.1137 170.1L93.2387 169.575C92.9887 170.125 92.6887 170.475 92.3387 170.475C91.7387 170.475 91.5637 170.225 91.5637 169.65V163.85C91.5637 161.45 90.0637 160.375 87.4637 160.375C84.8887 160.375 82.7637 161.475 82.7637 163.3C82.7637 164.025 83.3137 164.75 84.2887 164.75C85.2137 164.75 85.7387 164.1 85.7387 163.35C85.7387 162.825 85.4387 162.325 85.0137 162.125C85.6137 161.8 86.1887 161.65 86.9387 161.65C88.5137 161.65 89.2137 162.2 89.2137 163.675V164.85C89.2137 165.3 88.9387 165.325 87.4637 165.55C85.3887 165.85 84.1387 166.15 83.2137 167.075C82.6137 167.675 82.3637 168.375 82.3637 169.175C82.3637 170.9 83.5887 172.125 85.6887 172.125ZM86.7637 170.525C85.4887 170.525 84.9137 169.775 84.9137 168.675C84.9137 167.175 85.6637 166.875 88.0887 166.5C88.7137 166.4 88.9887 166.35 89.2137 166.25V168.225C89.2137 169.55 87.8887 170.525 86.7637 170.525ZM95.9439 157.825V160.675H93.6939V162.2H95.9439V169.175C95.9439 171.05 96.9689 172.225 98.9689 172.225C100.569 172.225 101.894 171.325 102.544 169.125L101.419 168.65C100.919 169.975 100.369 170.625 99.6689 170.625C98.6189 170.625 98.2939 170.075 98.2939 168.95V162.2H102.044V160.675H98.2939V157.575L95.9439 157.825ZM113.616 172.225C116.141 172.225 117.966 170.775 118.566 168.2H117.366C116.791 169.825 115.641 170.65 114.241 170.65C111.916 170.65 110.691 169 110.691 166.15C110.691 163.175 112.166 161.575 113.916 161.575C115.116 161.575 115.866 162.025 116.216 162.575C115.791 162.75 115.241 163.4 115.241 164.075C115.241 164.9 115.791 165.6 116.791 165.6C117.841 165.6 118.416 164.75 118.416 163.575C118.416 162.075 116.516 160.35 114.016 160.35C110.641 160.35 108.091 162.9 108.091 166.45C108.091 169.75 110.116 172.225 113.616 172.225ZM125.853 172.225C129.253 172.225 131.553 169.725 131.553 166.225C131.553 162.75 129.378 160.35 125.853 160.35C122.428 160.35 120.128 162.85 120.128 166.325C120.128 169.825 122.278 172.225 125.853 172.225ZM125.953 170.875C123.953 170.875 122.728 169.425 122.728 166.275C122.728 163.125 123.753 161.7 125.728 161.7C127.728 161.7 128.953 163.125 128.953 166.275C128.953 169.425 127.903 170.875 125.953 170.875ZM133.335 172H139.185V170.35H137.51V166C137.51 163.7 139.085 162.325 140.485 162.325C141.06 162.325 141.51 162.5 141.835 162.825C142.26 163.25 142.46 163.975 142.46 164.825V170.35H140.785V172H146.635V170.35H144.81V163.975C144.81 161.725 143.585 160.4 141.76 160.4C140.11 160.4 138.76 161.3 137.46 163.45V160.55H133.335V162.2H135.16V170.35H133.335V172ZM149.289 157.825V160.675H147.039V162.2H149.289V169.175C149.289 171.05 150.314 172.225 152.314 172.225C153.914 172.225 155.239 171.325 155.889 169.125L154.764 168.65C154.264 169.975 153.714 170.625 153.014 170.625C151.964 170.625 151.639 170.075 151.639 168.95V162.2H155.389V160.675H151.639V157.575L149.289 157.825ZM156.821 172H163.171V170.35H160.996V164.8C161.396 163.3 162.171 162.025 163.296 162.075C163.271 162.225 163.246 162.375 163.246 162.5C163.246 163.45 163.946 163.975 164.821 163.975C165.671 163.975 166.321 163.225 166.321 162.35C166.321 161.275 165.596 160.4 164.321 160.4C163.021 160.4 161.521 161.275 160.946 163.2V160.55H156.821V162.2H158.646V170.35H156.821V172ZM170.43 172.125C171.905 172.125 173.48 171.3 174.105 170.075H174.23C174.23 171.475 175.23 172.075 176.28 172.075C177.405 172.075 178.255 171.5 178.855 170.1L177.98 169.575C177.73 170.125 177.43 170.475 177.08 170.475C176.48 170.475 176.305 170.225 176.305 169.65V163.85C176.305 161.45 174.805 160.375 172.205 160.375C169.63 160.375 167.505 161.475 167.505 163.3C167.505 164.025 168.055 164.75 169.03 164.75C169.955 164.75 170.48 164.1 170.48 163.35C170.48 162.825 170.18 162.325 169.755 162.125C170.355 161.8 170.93 161.65 171.68 161.65C173.255 161.65 173.955 162.2 173.955 163.675V164.85C173.955 165.3 173.68 165.325 172.205 165.55C170.13 165.85 168.88 166.15 167.955 167.075C167.355 167.675 167.105 168.375 167.105 169.175C167.105 170.9 168.33 172.125 170.43 172.125ZM171.505 170.525C170.23 170.525 169.655 169.775 169.655 168.675C169.655 167.175 170.405 166.875 172.83 166.5C173.455 166.4 173.73 166.35 173.955 166.25V168.225C173.955 169.55 172.63 170.525 171.505 170.525ZM179.41 172.225H180.86L181.135 170.725C181.86 171.625 183.035 172.225 184.46 172.225C187.035 172.225 188.56 170.35 188.56 168.625C188.56 166.675 187.31 165.825 184.66 165.1C182.61 164.55 181.735 164.025 181.735 163.025C181.735 162.075 182.635 161.575 183.51 161.575C185.06 161.575 185.785 162.6 186.56 164.275H188.06V160.35H186.585L186.335 161.675C185.785 160.8 184.735 160.35 183.56 160.35C181.21 160.35 179.61 161.9 179.61 163.75C179.61 165.575 180.735 166.525 183.485 167.3C185.735 167.925 186.51 168.4 186.51 169.4C186.51 170.325 185.935 171 184.585 171C182.985 171 181.56 169.725 180.935 167.9H179.41V172.225ZM191.745 157.825V160.675H189.495V162.2H191.745V169.175C191.745 171.05 192.77 172.225 194.77 172.225C196.37 172.225 197.695 171.325 198.345 169.125L197.22 168.65C196.72 169.975 196.17 170.625 195.47 170.625C194.42 170.625 194.095 170.075 194.095 168.95V162.2H197.845V160.675H194.095V157.575L191.745 157.825ZM199.527 172.225H200.977L201.252 170.725C201.977 171.625 203.152 172.225 204.577 172.225C207.152 172.225 208.677 170.35 208.677 168.625C208.677 166.675 207.427 165.825 204.777 165.1C202.727 164.55 201.852 164.025 201.852 163.025C201.852 162.075 202.752 161.575 203.627 161.575C205.177 161.575 205.902 162.6 206.677 164.275H208.177V160.35H206.702L206.452 161.675C205.902 160.8 204.852 160.35 203.677 160.35C201.327 160.35 199.727 161.9 199.727 163.75C199.727 165.575 200.852 166.525 203.602 167.3C205.852 167.925 206.627 168.4 206.627 169.4C206.627 170.325 206.052 171 204.702 171C203.102 171 201.677 169.725 201.052 167.9H199.527V172.225ZM216.452 157.825V160.675H214.202V162.2H216.452V169.175C216.452 171.05 217.477 172.225 219.477 172.225C221.077 172.225 222.402 171.325 223.052 169.125L221.927 168.65C221.427 169.975 220.877 170.625 220.177 170.625C219.127 170.625 218.802 170.075 218.802 168.95V162.2H222.552V160.675H218.802V157.575L216.452 157.825ZM223.684 172H229.534V170.35H227.859V166C227.859 163.7 229.434 162.325 230.834 162.325C231.409 162.325 231.859 162.5 232.184 162.825C232.609 163.25 232.809 163.975 232.809 164.825V170.35H231.134V172H236.984V170.35H235.159V163.975C235.159 161.725 233.934 160.4 232.109 160.4C230.459 160.4 229.159 161.25 227.859 163.4V154.825H223.684V156.625H225.509V170.35H223.684V172ZM248.767 166.425C248.842 163.4 247.317 160.35 243.892 160.35C240.642 160.35 238.267 162.975 238.267 166.4C238.267 169.7 240.242 172.225 243.742 172.225C246.267 172.225 248.067 170.975 248.717 168.525H247.517C246.817 170.05 245.767 170.65 244.367 170.65C242.167 170.65 240.942 169.25 240.867 166.425H248.767ZM243.717 161.675C245.467 161.675 246.192 163.125 246.367 165.25H240.892C241.092 162.675 242.142 161.675 243.717 161.675ZM262.038 162.175C262.963 162.175 263.413 162.95 263.413 164.325C263.413 166.3 262.088 170.625 259.788 170.625C258.788 170.625 258.263 169.975 258.263 168.475C258.263 166.1 260.038 162.175 262.038 162.175ZM261.588 154.775H256.563L256.038 156.725H258.188L256.138 164.2C255.713 165.75 255.388 167.275 255.388 168.275C255.388 170.575 256.688 172.25 259.488 172.25C263.113 172.25 266.388 168.5 266.388 164.25C266.388 162 265.288 160.225 263.163 160.225C261.738 160.225 260.288 161.25 259.263 163.2L259.063 163.125L261.588 154.775ZM278.379 162.825C278.379 161.3 277.179 160.225 275.029 160.225C271.104 160.225 267.779 163.85 267.779 167.7C267.779 170.45 269.579 172.25 272.154 172.25C274.804 172.25 276.354 170.875 277.629 169.05L276.579 168.3C275.529 169.775 274.304 170.6 273.079 170.6C271.829 170.6 270.754 169.95 270.754 167.875C270.754 167.7 270.754 167.5 270.779 167.3C276.029 167 278.379 165.075 278.379 162.825ZM274.604 161.6C275.354 161.6 275.754 162.15 275.754 162.85C275.754 164.4 274.479 165.75 271.004 166.125C271.529 163.975 272.854 161.6 274.604 161.6ZM288.353 168.325C288.353 166.6 286.928 165.9 285.603 165.3C284.153 164.625 283.103 164.15 283.103 163.15C283.103 162.1 283.978 161.475 285.178 161.475C285.928 161.475 286.653 161.725 286.903 161.95C286.553 162.25 286.303 162.775 286.303 163.275C286.303 164 286.853 164.65 287.778 164.65C288.728 164.65 289.353 163.825 289.353 162.85C289.353 161.35 287.628 160.225 285.078 160.225C282.903 160.225 280.378 161.45 280.378 164.075C280.378 165.775 281.828 166.5 283.278 167.175C284.578 167.75 285.603 168.225 285.603 169.175C285.603 170.325 284.803 170.95 283.528 170.95C282.628 170.95 281.803 170.675 281.378 170.3C281.703 170.025 281.978 169.525 281.978 168.925C281.978 168.25 281.478 167.55 280.503 167.55C279.503 167.55 278.853 168.375 278.853 169.35C278.853 171.25 281.278 172.25 283.603 172.25C286.103 172.25 288.353 170.925 288.353 168.325ZM299.289 162.275L299.714 160.75H296.139L297.039 157.425L294.064 157.75L293.264 160.75H291.039L290.639 162.275H292.864L291.489 167.125C291.314 167.875 291.039 168.925 291.039 169.725C291.039 171.35 292.089 172.25 293.789 172.25C295.239 172.25 297.014 171.425 298.364 167.85L297.164 167.45C296.364 169.05 295.614 170.15 294.739 170.15C294.214 170.15 293.914 169.9 293.914 169.275C293.914 168.95 294.039 168.425 294.214 167.775L295.739 162.275H299.289ZM316.846 162.2V160.55H310.896V162.2H312.446L312.946 163.65L310.421 169.95H310.321L307.871 162.2H309.746V160.55H303.871V162.2H305.471L308.846 172.15H311.046L313.646 165.725L315.846 172.15H318.146L321.596 162.2H323.046V160.55H318.221V162.2H319.846L317.421 169.95H317.321L314.746 162.2H316.846ZM327.136 158.15C328.111 158.15 328.761 157.475 328.761 156.475C328.761 155.475 328.111 154.825 327.136 154.825C326.161 154.825 325.511 155.525 325.511 156.525C325.511 157.525 326.161 158.15 327.136 158.15ZM324.036 172H330.536V170.35H328.461V160.55H324.036V162.2H326.111V170.35H324.036V172ZM333.346 157.825V160.675H331.096V162.2H333.346V169.175C333.346 171.05 334.371 172.225 336.371 172.225C337.971 172.225 339.296 171.325 339.946 169.125L338.821 168.65C338.321 169.975 337.771 170.625 337.071 170.625C336.021 170.625 335.696 170.075 335.696 168.95V162.2H339.446V160.675H335.696V157.575L333.346 157.825ZM340.579 172H346.429V170.35H344.754V166C344.754 163.7 346.329 162.325 347.729 162.325C348.304 162.325 348.754 162.5 349.079 162.825C349.504 163.25 349.704 163.975 349.704 164.825V170.35H348.029V172H353.879V170.35H352.054V163.975C352.054 161.725 350.829 160.4 349.004 160.4C347.354 160.4 346.054 161.25 344.754 163.4V154.825H340.579V156.625H342.404V170.35H340.579V172ZM361.252 157.825V160.675H359.002V162.2H361.252V169.175C361.252 171.05 362.277 172.225 364.277 172.225C365.877 172.225 367.202 171.325 367.852 169.125L366.727 168.65C366.227 169.975 365.677 170.625 364.977 170.625C363.927 170.625 363.602 170.075 363.602 168.95V162.2H367.352V160.675H363.602V157.575L361.252 157.825ZM368.484 172H374.334V170.35H372.659V166C372.659 163.7 374.234 162.325 375.634 162.325C376.209 162.325 376.659 162.5 376.984 162.825C377.409 163.25 377.609 163.975 377.609 164.825V170.35H375.934V172H381.784V170.35H379.959V163.975C379.959 161.725 378.734 160.4 376.909 160.4C375.259 160.4 373.959 161.25 372.659 163.4V154.825H368.484V156.625H370.309V170.35H368.484V172ZM386.267 158.15C387.242 158.15 387.892 157.475 387.892 156.475C387.892 155.475 387.242 154.825 386.267 154.825C385.292 154.825 384.642 155.525 384.642 156.525C384.642 157.525 385.292 158.15 386.267 158.15ZM383.167 172H389.667V170.35H387.592V160.55H383.167V162.2H385.242V170.35H383.167V172ZM391.202 172.225H392.652L392.927 170.725C393.652 171.625 394.827 172.225 396.252 172.225C398.827 172.225 400.352 170.35 400.352 168.625C400.352 166.675 399.102 165.825 396.452 165.1C394.402 164.55 393.527 164.025 393.527 163.025C393.527 162.075 394.427 161.575 395.302 161.575C396.852 161.575 397.577 162.6 398.352 164.275H399.852V160.35H398.377L398.127 161.675C397.577 160.8 396.527 160.35 395.352 160.35C393.002 160.35 391.402 161.9 391.402 163.75C391.402 165.575 392.527 166.525 395.277 167.3C397.527 167.925 398.302 168.4 398.302 169.4C398.302 170.325 397.727 171 396.377 171C394.777 171 393.352 169.725 392.727 167.9H391.202V172.225ZM412.152 172.225C414.677 172.225 416.502 170.775 417.102 168.2H415.902C415.327 169.825 414.177 170.65 412.777 170.65C410.452 170.65 409.227 169 409.227 166.15C409.227 163.175 410.702 161.575 412.452 161.575C413.652 161.575 414.402 162.025 414.752 162.575C414.327 162.75 413.777 163.4 413.777 164.075C413.777 164.9 414.327 165.6 415.327 165.6C416.377 165.6 416.952 164.75 416.952 163.575C416.952 162.075 415.052 160.35 412.552 160.35C409.177 160.35 406.627 162.9 406.627 166.45C406.627 169.75 408.652 172.225 412.152 172.225ZM424.388 172.225C427.788 172.225 430.088 169.725 430.088 166.225C430.088 162.75 427.913 160.35 424.388 160.35C420.963 160.35 418.663 162.85 418.663 166.325C418.663 169.825 420.813 172.225 424.388 172.225ZM424.488 170.875C422.488 170.875 421.263 169.425 421.263 166.275C421.263 163.125 422.288 161.7 424.263 161.7C426.263 161.7 427.488 163.125 427.488 166.275C427.488 169.425 426.438 170.875 424.488 170.875ZM431.47 172H437.97V170.35H435.895V154.825H431.47V156.625H433.545V170.35H431.47V172ZM445.066 172.225C448.466 172.225 450.766 169.725 450.766 166.225C450.766 162.75 448.591 160.35 445.066 160.35C441.641 160.35 439.341 162.85 439.341 166.325C439.341 169.825 441.491 172.225 445.066 172.225ZM445.166 170.875C443.166 170.875 441.941 169.425 441.941 166.275C441.941 163.125 442.966 161.7 444.941 161.7C446.941 161.7 448.166 163.125 448.166 166.275C448.166 169.425 447.116 170.875 445.166 170.875ZM452.549 172H458.899V170.35H456.724V164.8C457.124 163.3 457.899 162.025 459.024 162.075C458.999 162.225 458.974 162.375 458.974 162.5C458.974 163.45 459.674 163.975 460.549 163.975C461.399 163.975 462.049 163.225 462.049 162.35C462.049 161.275 461.324 160.4 460.049 160.4C458.749 160.4 457.249 161.275 456.674 163.2V160.55H452.549V162.2H454.374V170.35H452.549V172ZM463.485 172.4C464.385 172.4 465.11 171.675 465.11 170.8C465.11 169.925 464.385 169.2 463.485 169.2C462.56 169.2 461.835 169.925 461.835 170.8C461.835 171.675 462.56 172.4 463.485 172.4Z" fill="white"/>
<path d="M247.543 273.622C248.991 274.427 250.818 273.905 251.622 272.457L264.735 248.855C265.539 247.406 265.018 245.58 263.569 244.775C262.121 243.971 260.295 244.492 259.49 245.941L247.834 266.921L226.855 255.265C225.406 254.461 223.58 254.982 222.775 256.431C221.971 257.879 222.492 259.705 223.941 260.51L247.543 273.622ZM226.115 201.824L246.115 271.824L251.885 270.176L231.885 200.176L226.115 201.824Z" fill="#357CAF"/>
<path d="M515.717 246.759C516.672 248.113 518.544 248.435 519.897 247.48L541.956 231.909C543.309 230.954 543.632 229.082 542.676 227.728C541.721 226.375 539.849 226.052 538.496 227.008L518.888 240.848L505.048 221.241C504.092 219.887 502.221 219.564 500.867 220.52C499.513 221.475 499.191 223.347 500.146 224.701L515.717 246.759ZM545.044 71.4903L515.211 244.519L521.124 245.539L550.956 72.5097L545.044 71.4903Z" fill="#980000"/>
</svg>
